<svg width="264" height="55" viewBox="0 0 264 55" fill="none" xmlns="http://www.w3.org/2000/svg">
<path d="M52.85 5.00003H45.45L37.45 30.25L28.7 5.00003H24.4L15.9 30.25L7.65 5.00003H0.25L13.1 40H18.7L22.95 29.1L26.6 17.95L30.3 29L34.65 40H40.25L52.85 5.00003ZM76.743 29.85C77.693 19.7 72.543 14.6 64.293 14.6C56.293 14.6 51.193 20 51.193 27.5C51.193 35.4 56.243 40.65 64.743 40.65C68.493 40.65 72.743 39.35 75.343 36.65L71.443 32.8C70.043 34.25 67.093 35.1 64.843 35.1C60.543 35.1 57.893 32.9 57.493 29.85H76.743ZM57.593 24.8C58.493 21.6 61.193 20 64.493 20C67.993 20 70.493 21.6 70.893 24.8H57.593ZM95.0934 20.45C98.9934 20.45 102.093 23.2 102.093 27.65C102.093 31.95 98.9934 34.9 95.0934 34.9C91.2434 34.9 87.9434 32.1 87.9434 27.65C87.9434 23.35 91.2434 20.45 95.0934 20.45ZM81.4434 5.05003V40H87.1434L87.5434 36.6C89.4434 39.55 92.4934 40.55 95.4934 40.55C102.743 40.55 108.193 35.75 108.193 27.65C108.193 19.15 102.843 14.75 95.6434 14.75C93.0434 14.75 88.9934 16.15 87.5434 18.7V5.05003H81.4434ZM122.193 40H128.793V11H139.893V5.00003C129.743 5.00003 121.193 5.00003 111.093 5.00003V11H122.193V40ZM161.167 29.85C162.117 19.7 156.967 14.6 148.717 14.6C140.717 14.6 135.617 20 135.617 27.5C135.617 35.4 140.667 40.65 149.167 40.65C152.917 40.65 157.167 39.35 159.767 36.65L155.867 32.8C154.467 34.25 151.517 35.1 149.267 35.1C144.967 35.1 142.317 32.9 141.917 29.85H161.167ZM142.017 24.8C142.917 21.6 145.617 20 148.917 20C152.417 20 154.917 21.6 155.317 24.8H142.017ZM185.367 17.9C182.517 15.4 179.617 14.65 175.767 14.65C171.267 14.65 165.367 16.65 165.367 22.35C165.367 27.95 170.917 29.65 175.567 30C179.067 30.2 180.467 30.9 180.467 32.6C180.467 34.4 178.317 35.6 176.017 35.55C173.267 35.5 169.267 34.05 167.517 32.1L164.517 36.45C168.117 40.2 172.017 40.85 175.917 40.85C182.967 40.85 186.517 37.1 186.517 32.75C186.517 26.2 180.617 25.15 175.967 24.85C172.817 24.65 171.367 23.75 171.367 22.15C171.367 20.6 172.967 19.7 175.867 19.7C178.217 19.7 180.217 20.25 181.967 21.9L185.367 17.9ZM192.928 9.05003V15.4H188.328V20.65H192.928V31.3C192.928 37.45 196.428 40.5 201.778 40.3C203.628 40.25 205.078 39.95 206.828 39.25L205.128 34.05C204.228 34.5 203.128 34.8 202.178 34.8C200.278 34.8 198.978 33.65 198.978 31.3V20.65H205.828V15.4H199.028V8.40003L192.928 9.05003ZM234.848 29.85C235.798 19.7 230.648 14.6 222.398 14.6C214.398 14.6 209.298 20 209.298 27.5C209.298 35.4 214.348 40.65 222.848 40.65C226.598 40.65 230.848 39.35 233.448 36.65L229.548 32.8C228.148 34.25 225.198 35.1 222.948 35.1C218.648 35.1 215.998 32.9 215.598 29.85H234.848ZM215.698 24.8C216.598 21.6 219.298 20 222.598 20C226.098 20 228.598 21.6 228.998 24.8H215.698ZM239.549 15.35V40H245.649V27C245.649 22.45 248.599 20.75 251.799 20.75C253.799 20.75 254.949 21.3 256.199 22.35L258.949 17.05C257.599 15.7 255.149 14.7 252.599 14.7C250.099 14.7 247.549 15.15 245.649 18.2L245.199 15.35H239.549Z" fill="#202020"/>
</svg>
