<svg width="177" height="157" viewBox="0 0 177 157" fill="none" xmlns="http://www.w3.org/2000/svg">
<path d="M176.491 0C173.842 1.40227 172.128 3.8952 169.48 5.29748C169.48 5.14167 169.48 4.98586 169.48 4.83005C168.701 5.29747 168.856 5.60909 168.545 6.07652C168.389 6.38813 167.766 6.69975 167.454 6.69975C166.987 6.69975 167.298 6.69975 167.142 6.38813C167.142 6.54394 162.468 9.81591 161.845 10.2833C160.91 11.0624 160.131 11.6856 159.196 12.4646C158.417 13.0879 157.638 14.3343 156.859 14.8018C156.392 15.1134 155.768 15.1134 155.145 15.5808C154.366 16.0482 153.743 16.6715 152.964 17.1389C152.341 17.6063 151.562 17.7621 151.094 18.0737C150.159 18.8528 150.004 19.9434 149.536 20.7225C148.757 21.6573 147.355 22.4364 146.42 23.0596C145.329 23.8386 144.395 24.6177 143.46 25.5525C141.434 27.2664 139.253 28.9803 137.227 30.6942C133.332 34.122 129.437 37.7056 125.698 41.2891C123.516 43.3146 121.335 45.496 118.998 47.5215C117.907 48.4563 116.972 49.3912 115.882 50.4818C115.258 51.1051 114.791 51.5725 114.324 52.1957C114.012 52.8189 113.544 53.598 113.233 54.2212C112.921 46.1192 106.845 38.0172 98.2753 37.7056C98.4311 37.3939 98.4311 37.2381 98.5869 36.9265C90.9523 36.1475 83.6293 37.2381 76.4622 40.3543C69.9182 43.1588 63.9975 47.3657 59.0117 52.3515C58.0768 49.0795 56.8304 45.496 54.9607 42.5356C54.4932 41.9124 54.0258 41.1333 53.5584 40.5101C53.4026 40.3543 52.6235 38.952 52.7793 39.8869C52.3119 37.3939 50.2864 34.4336 48.5725 32.7197C48.7283 32.7197 48.8841 32.8755 49.04 33.0313C48.1051 31.3174 46.547 30.6942 45.1447 29.4477C44.5215 28.9803 44.0541 28.0455 43.4309 27.7338C42.8076 27.4222 42.0286 27.1106 41.4054 26.799C40.4705 26.1758 39.5357 25.8641 38.445 25.5525C37.9776 25.3967 37.5102 25.2409 37.0427 25.2409C36.7311 25.2409 35.9521 25.3967 35.6405 25.2409C35.3288 25.0851 35.173 24.7735 35.0172 24.6177C34.5498 24.4619 33.9266 24.4619 33.4591 24.4619C32.3685 24.3061 31.2778 24.4619 30.1872 24.4619C26.1362 24.7735 21.9293 26.1758 18.5016 28.5129C16.7877 29.7593 15.3854 31.4732 13.8273 33.0313C12.1134 34.7452 10.3995 36.6149 9.46469 38.952C8.99727 40.0427 8.84146 40.8217 8.37404 41.7566C7.75081 42.6914 7.28338 43.6263 6.81596 44.5611C5.7253 46.8982 4.79045 49.3912 4.47884 51.8841C4.47884 51.7283 4.47884 51.5725 4.47884 51.4167C3.6998 54.377 3.07656 57.4932 2.76495 60.4535C2.60914 61.7 2.60914 62.9465 2.76495 64.0371C2.76495 64.1929 2.92075 64.6604 2.92075 64.8162C2.76495 65.2836 2.76495 65.1278 2.45333 65.5952C1.98591 66.2184 1.67429 66.5301 1.36267 67.3091C0.89525 68.3997 0.583633 69.6462 0.583633 70.7369C0.583633 72.1391 0.739442 73.3856 0.739442 74.7879C0.739442 77.7482 0.583633 80.7086 1.05106 83.6689C1.20687 84.6038 0.89525 85.227 0.89525 86.3177C0.89525 87.0967 0.89525 87.8758 0.739442 88.6548C0.739442 88.9664 0.583633 88.6548 0.583633 89.1222C0.583633 89.4338 0.739442 89.9013 0.739442 90.2129C0.89525 90.9919 1.05106 91.771 1.20687 92.55C1.51848 94.2639 1.8301 95.9778 2.14171 97.6917C3.38818 104.547 4.63464 111.403 6.03692 118.258C6.81596 121.998 7.595 125.737 8.52985 129.632C8.68565 130.567 8.84146 131.502 9.15308 132.437C9.46469 133.216 9.93212 133.683 10.7112 134.151C12.1134 135.086 14.6064 136.955 14.4506 136.644C16.0086 138.825 17.2551 144.122 16.9435 143.811C18.8132 145.213 19.4364 147.862 21.4619 149.42C21.9293 149.732 22.5526 149.887 22.8642 150.199C23.02 150.355 22.7084 150.511 23.02 150.666C23.4874 150.978 24.2665 152.225 23.6432 151.913C31.5894 157.834 41.717 157.522 49.819 151.913C57.4536 146.615 62.4394 138.358 67.5811 130.879C71.0089 125.893 74.5925 121.063 78.3319 116.233C78.3319 116.544 78.3319 116.856 78.1761 117.168C78.7993 115.765 79.2667 114.363 79.89 112.805C80.0458 112.961 80.0458 113.272 80.0458 113.584C84.2526 109.689 85.9665 104.08 89.3942 99.5614C89.7059 99.873 89.7059 100.496 90.1733 100.496C90.6407 100.496 90.7965 99.4056 90.9523 98.9381C91.4198 98.0033 92.043 97.3801 92.822 96.7568C94.3801 95.5104 95.1591 94.4197 94.0685 92.55C94.5359 92.55 95.0033 93.0174 95.1591 93.4849C99.2102 86.0061 103.417 78.6831 108.091 71.6717C109.182 70.1136 110.117 68.5556 111.207 66.9975C111.675 66.2184 112.298 65.4394 112.765 64.5046C113.233 63.5697 113.233 62.479 113.389 61.3884C113.544 60.1419 113.545 59.3629 114.324 58.428C114.947 57.649 115.57 57.0258 116.193 56.2467C117.596 54.6886 118.998 53.1306 120.556 51.5725C120.556 51.8841 121.647 50.7934 121.647 50.9492C123.984 50.4818 125.386 48.1447 126.632 46.4308C127.256 45.6518 127.723 44.8727 128.502 44.4053C128.814 44.2495 129.437 44.0937 129.593 43.9379C130.06 43.3147 129.593 42.6914 128.969 42.5356C133.176 38.3288 137.383 34.2778 141.746 30.2268C143.927 28.2013 146.108 26.1758 148.134 24.1503C149.225 23.2154 150.315 22.1248 151.25 21.1899C151.873 20.5667 153.431 18.3854 154.366 19.476C157.638 15.7366 161.378 12.4646 165.273 9.50429C167.298 7.94621 169.324 6.54394 171.193 5.14167C171.817 4.67424 176.958 0.77904 176.958 0.77904C176.491 0 176.179 0.311616 176.179 0.311616C176.179 0.155808 176.335 0.155808 176.491 0C173.531 1.40227 175.556 0.623232 176.491 0ZM94.2243 41.6008C98.8985 42.224 103.261 44.0937 107.001 47.054C107.935 47.8331 108.714 48.4563 109.338 49.7028C109.805 50.7934 110.117 51.8841 110.273 52.9748C110.428 54.0654 110.428 55.1561 110.273 56.2467C110.273 56.7141 110.273 57.3374 109.961 57.8048C109.649 58.428 108.87 58.8955 108.403 59.3629C106.377 61.0768 104.04 62.6349 102.015 64.1929C100.924 64.972 99.9892 65.9068 99.0544 66.6859C98.5869 67.1533 98.1195 67.6207 97.6521 68.2439C97.3405 68.5556 97.0288 69.3346 96.7172 68.7114C95.9382 70.4253 94.6917 71.9833 93.6011 73.3856C92.9778 74.0088 92.5104 74.6321 91.8872 75.2553C91.2639 75.7227 90.3291 76.346 90.0175 76.9692C89.5501 77.7482 89.7059 78.8389 89.3942 79.7737C89.0826 80.397 88.4594 80.7086 87.8362 81.0202C86.7455 81.7992 85.8107 82.5783 84.8758 83.3573C77.5528 89.1222 71.4763 95.9778 64.465 102.21C58.2326 107.663 49.6632 112.649 41.5612 108.131C40.1589 107.352 38.7566 106.105 37.9776 104.547C37.1985 103.145 37.3543 101.431 37.5102 99.873C37.9776 95.6662 40.3147 91.9268 42.1844 88.3432C46.7028 79.9296 58.0768 64.1929 57.7652 64.8162C58.5442 63.7255 59.4791 62.7907 60.5697 61.8558C60.5697 62.479 60.8814 62.9465 60.8814 63.5697C60.8814 63.7255 60.7256 63.7255 60.7256 63.7255C60.5698 64.6604 61.0372 65.2836 60.8814 66.0626C60.8814 66.6859 60.4139 70.7369 60.4139 70.8927C60.2581 71.0485 60.2581 71.3601 60.1023 71.5159C59.9465 71.5159 59.3233 74.9437 60.1023 74.9437C60.5697 74.9437 60.4139 73.074 60.5697 72.6066C60.8814 71.3601 61.0372 69.9578 61.3488 68.5556C61.6604 66.9975 61.3488 65.4394 61.193 63.8813C61.193 63.4139 61.193 62.9465 61.193 62.479C61.193 62.1674 60.8814 61.3884 61.0372 61.0768C61.193 60.7652 61.972 60.1419 62.2836 59.9861C65.0882 57.4932 85.3432 40.3543 94.2243 41.6008ZM102.015 73.2298C97.0288 81.6434 91.7314 89.9013 86.5897 98.3149C86.4339 98.1591 86.2781 98.1591 86.1223 98.0033C82.0713 105.326 76.618 111.714 71.1647 117.947C68.516 121.063 65.8672 124.179 63.3743 127.295C62.1278 129.009 60.7256 130.723 59.4791 132.437C58.2326 134.307 56.6745 136.02 55.1165 137.734C49.819 143.967 43.2751 151.445 34.2382 150.978C30.0314 150.822 26.1362 148.797 23.1758 145.836C20.3713 143.032 18.969 139.137 17.0993 135.865C14.918 131.969 12.425 128.074 10.5554 124.023C8.68565 119.972 7.7508 116.077 7.43919 111.559C6.81596 102.366 5.88111 93.1732 5.25788 84.1364C4.63464 75.2553 4.47884 65.9068 5.7253 57.0258C6.34853 52.6631 8.06242 47.9889 9.77631 43.9379C11.3344 40.0427 13.5157 36.4591 16.3202 33.4987C22.3968 27.2664 31.9011 23.527 40.1589 27.8896C44.0541 30.071 47.1703 32.4081 49.6632 36.3033C52.4677 40.3543 54.4932 44.7169 56.3629 49.3912C56.3629 49.2354 56.3629 49.0795 56.3629 48.9237C56.5187 49.7028 56.8304 50.326 56.9862 51.1051C57.142 51.5725 57.921 52.8189 57.7652 53.2864C57.6094 53.7538 56.6745 54.5328 56.3629 54.8444C55.8955 55.3119 55.4281 55.9351 54.9607 56.4025C54.0258 57.4932 53.091 58.5838 52.0003 59.6745C51.0655 60.6093 51.2213 60.4535 50.2864 59.6745C46.8586 69.1788 32.6801 71.8275 32.5243 83.0457C32.2127 82.5783 31.7453 82.1109 31.4336 81.6434C32.8359 83.9806 30.343 88.3432 30.343 88.9664C30.1872 89.7455 30.9662 90.9919 30.9662 91.9268C30.9662 93.6407 30.343 95.1987 29.7197 96.9126C28.9407 98.9381 28.1617 100.808 28.4733 102.989C28.7849 104.859 30.0314 106.729 31.7453 107.508C31.7453 107.508 31.2778 107.508 30.9662 107.508C32.5243 108.598 35.0172 109.377 36.1079 111.247C35.7963 111.247 35.4846 111.714 35.0172 111.714C36.7311 114.986 40.4705 116.544 43.8983 116.389C48.2609 116.233 52.0003 114.207 56.0513 112.649C56.0513 113.272 55.8955 113.896 55.8955 114.675C57.142 112.649 59.7907 111.559 61.8162 110.312C63.9975 109.066 66.023 107.663 67.5811 105.482C67.7369 105.794 67.8927 105.95 68.0485 106.261C68.3602 105.482 68.516 104.703 68.8276 103.768C69.1392 104.08 69.4508 104.391 69.7624 104.703C70.3857 105.17 70.074 105.326 70.8531 104.859C72.4112 103.924 73.8134 102.833 75.0599 101.431C77.5528 98.7823 79.2667 95.822 81.6038 93.1732C81.9155 93.6407 82.2271 94.1081 82.5387 94.5755C84.0968 88.8106 90.0175 86.4735 92.9778 81.6434C92.9778 81.7992 93.1336 81.9551 93.1336 82.1109C97.0288 78.3715 100.612 74.1646 104.196 70.1136C103.261 71.0485 102.638 72.1391 102.015 73.2298C96.873 81.7992 102.638 72.1391 102.015 73.2298Z" fill="#5637E3"/>
</svg>
