<svg width="17" height="24" viewBox="0 0 17 24" fill="none" xmlns="http://www.w3.org/2000/svg">
<path d="M16.6603 23.0883L0.487427 23.1216L0.525576 0.622681L12.0578 0.533325L16.6681 5.83417L16.6603 23.0883Z" fill="white"/>
<path fill-rule="evenodd" clip-rule="evenodd" d="M0.919217 0.925167H11.5626V5.6558C11.5626 5.91167 11.7684 6.11839 12.022 6.11839H16.0808V22.6143H0.919217V0.925167ZM17 5.70251C17 5.68545 16.9967 5.668 16.9947 5.65053C16.9943 5.54209 16.9594 5.43569 16.8856 5.35161L12.3682 0.157985C12.3666 0.15677 12.3646 0.154732 12.3646 0.154732C12.3378 0.124681 12.3061 0.0994952 12.2733 0.07757C12.2631 0.0710739 12.2534 0.0653847 12.2428 0.0597037C12.214 0.0442746 12.1836 0.0308666 12.1519 0.021526C12.1438 0.0194965 12.1361 0.0158367 12.128 0.0133997C12.0935 0.00487411 12.0582 0 12.022 0L0.919217 0.000407562C0.412333 0.000407562 0 0.415073 0 0.925175C0 11.7783 0 21.0706 0 22.6557C0 23.1658 0.411926 23.5813 0.91881 23.5813H16.0808C16.5877 23.5813 17 23.1658 17 22.6557C17 2.0794 17 30.9778 17 5.70251Z" fill="#403F3F"/>
</svg>
