<svg width="68" height="58" viewBox="0 0 68 58" fill="none" xmlns="http://www.w3.org/2000/svg">
<path d="M5.40001 0.800049C2.52701 0.800049 0.200012 3.12705 0.200012 6.00005V13.8H28.8H67.8V11.2C67.8 8.32705 65.473 6.00005 62.6 6.00005H24.118L22.5133 3.32388C21.5747 1.75868 19.8825 0.800049 18.0547 0.800049H5.40001ZM2.80001 19C1.36481 19 0.200012 20.1649 0.200012 21.6V52.8001C0.200012 55.6731 2.52701 58.0001 5.40001 58.0001H62.6C65.473 58.0001 67.8 55.6731 67.8 52.8001V21.6C67.8 20.1649 66.6352 19 65.2 19H2.80001Z" fill="#45DDDD"/>
</svg>
