<svg width="42" height="37" viewBox="0 0 42 37" xmlns="http://www.w3.org/2000/svg">
<path d="M41.5287 31.7216L23.8132 1.61843C23.2096 0.60364 22.1597 0 20.9962 0C19.8414 0 18.7829 0.60364 18.188 1.61843L0.472527 31.7216C-0.148627 32.7714 -0.157384 34.0312 0.446256 35.0897C1.04114 36.122 2.09971 36.7432 3.28072 36.7432H38.7204C39.9014 36.7432 40.96 36.122 41.5461 35.0897C42.1585 34.0312 42.1498 32.7714 41.5287 31.7216ZM19.1947 12.996H22.1524V15.7841L21.5185 23.5867H19.8286L19.1947 15.7841V12.996ZM21.7931 28.1685C21.4834 28.4855 21.1135 28.6444 20.6842 28.6444C20.2545 28.6444 19.8845 28.4855 19.5748 28.1685C19.2647 27.8515 19.1101 27.4739 19.1101 27.0339C19.1101 26.5948 19.2647 26.2164 19.5748 25.8994C19.8845 25.5824 20.2545 25.4235 20.6842 25.4235C21.1135 25.4235 21.4834 25.5824 21.7931 25.8994C22.1028 26.2164 22.2579 26.5948 22.2579 27.0339C22.2579 27.4739 22.1028 27.8515 21.7931 28.1685Z"/>
</svg>
