<svg width="87" height="15" viewBox="0 0 87 15" fill="none" xmlns="http://www.w3.org/2000/svg">
<path d="M11.1634 10.2217L12.8861 1.11621H15.514L12.6751 13.9131H10.0208L7.93784 5.35254L5.85483 13.9131H3.20053L0.361664 1.11621H2.98959L4.72104 10.2041L6.83041 1.11621H9.06284L11.1634 10.2217ZM20.8753 14.0889C19.4808 14.0889 18.3441 13.6611 17.4652 12.8057C16.5921 11.9502 16.1556 10.8105 16.1556 9.38672V9.14062C16.1556 8.18555 16.3402 7.33301 16.7093 6.58301C17.0785 5.82715 17.5999 5.24707 18.2738 4.84277C18.9535 4.43262 19.7269 4.22754 20.5941 4.22754C21.8949 4.22754 22.9173 4.6377 23.6615 5.45801C24.4115 6.27832 24.7865 7.44141 24.7865 8.94727V9.98438H18.7308C18.8128 10.6055 19.0589 11.1035 19.4691 11.4785C19.8851 11.8535 20.4095 12.041 21.0423 12.041C22.0208 12.041 22.7855 11.6865 23.3363 10.9775L24.5843 12.375C24.2035 12.9141 23.6878 13.3359 23.0374 13.6406C22.3871 13.9395 21.6664 14.0889 20.8753 14.0889ZM20.5853 6.28418C20.0814 6.28418 19.6712 6.4541 19.3548 6.79395C19.0443 7.13379 18.8451 7.62012 18.7572 8.25293H22.2904V8.05078C22.2787 7.48828 22.1263 7.05469 21.8333 6.75C21.5404 6.43945 21.1244 6.28418 20.5853 6.28418ZM34.806 9.24609C34.806 10.7695 34.4808 11.959 33.8304 12.8145C33.18 13.6641 32.2718 14.0889 31.1058 14.0889C30.0746 14.0889 29.2513 13.6934 28.6361 12.9023L28.5218 13.9131H26.2367V0.413086H28.7767V5.25586C29.3626 4.57031 30.1331 4.22754 31.0882 4.22754C32.2484 4.22754 33.1566 4.65527 33.8128 5.51074C34.4749 6.36035 34.806 7.55859 34.806 9.10547V9.24609ZM32.266 9.06152C32.266 8.10059 32.1136 7.40039 31.8089 6.96094C31.5042 6.51562 31.0501 6.29297 30.4466 6.29297C29.638 6.29297 29.0814 6.62402 28.7767 7.28613V11.0391C29.0872 11.707 29.6497 12.041 30.4642 12.041C31.2845 12.041 31.8236 11.6367 32.0814 10.8281C32.2044 10.4414 32.266 9.85254 32.266 9.06152ZM46.179 3.25195H42.2591V13.9131H39.6224V3.25195H35.7552V1.11621H46.179V3.25195ZM51.1097 14.0889C49.7152 14.0889 48.5785 13.6611 47.6996 12.8057C46.8265 11.9502 46.39 10.8105 46.39 9.38672V9.14062C46.39 8.18555 46.5746 7.33301 46.9437 6.58301C47.3128 5.82715 47.8343 5.24707 48.5081 4.84277C49.1878 4.43262 49.9613 4.22754 50.8285 4.22754C52.1292 4.22754 53.1517 4.6377 53.8958 5.45801C54.6458 6.27832 55.0208 7.44141 55.0208 8.94727V9.98438H48.9652C49.0472 10.6055 49.2933 11.1035 49.7035 11.4785C50.1195 11.8535 50.6439 12.041 51.2767 12.041C52.2552 12.041 53.0199 11.6865 53.5706 10.9775L54.8187 12.375C54.4378 12.9141 53.9222 13.3359 53.2718 13.6406C52.6214 13.9395 51.9007 14.0889 51.1097 14.0889ZM50.8197 6.28418C50.3158 6.28418 49.9056 6.4541 49.5892 6.79395C49.2787 7.13379 49.0794 7.62012 48.9915 8.25293H52.5247V8.05078C52.513 7.48828 52.3607 7.05469 52.0677 6.75C51.7747 6.43945 51.3587 6.28418 50.8197 6.28418ZM61.6214 11.2852C61.6214 10.9746 61.4662 10.7314 61.1556 10.5557C60.8509 10.374 60.3587 10.2129 59.679 10.0723C57.4173 9.59766 56.2865 8.63672 56.2865 7.18945C56.2865 6.3457 56.6351 5.64258 57.3324 5.08008C58.0355 4.51172 58.9525 4.22754 60.0833 4.22754C61.2904 4.22754 62.2542 4.51172 62.9749 5.08008C63.7015 5.64844 64.0648 6.38672 64.0648 7.29492H61.5247C61.5247 6.93164 61.4076 6.63281 61.1732 6.39844C60.9388 6.1582 60.5726 6.03809 60.0746 6.03809C59.6468 6.03809 59.3158 6.13477 59.0814 6.32812C58.847 6.52148 58.7298 6.76758 58.7298 7.06641C58.7298 7.34766 58.8617 7.57617 59.1253 7.75195C59.3949 7.92188 59.846 8.07129 60.4789 8.2002C61.1117 8.32324 61.6449 8.46387 62.0785 8.62207C63.4203 9.11426 64.0912 9.9668 64.0912 11.1797C64.0912 12.0469 63.7191 12.75 62.9749 13.2891C62.2308 13.8223 61.2699 14.0889 60.0921 14.0889C59.2953 14.0889 58.5863 13.9482 57.9652 13.667C57.3499 13.3799 56.8665 12.9902 56.515 12.498C56.1634 12 55.9876 11.4639 55.9876 10.8896H58.3958C58.4193 11.3408 58.5863 11.6865 58.8968 11.9268C59.2074 12.167 59.6234 12.2871 60.1449 12.2871C60.6312 12.2871 60.9974 12.1963 61.2435 12.0146C61.4955 11.8271 61.6214 11.584 61.6214 11.2852ZM68.7757 2.06543V4.40332H70.4017V6.2666H68.7757V11.0127C68.7757 11.3643 68.8431 11.6162 68.9779 11.7686C69.1126 11.9209 69.3705 11.9971 69.7513 11.9971C70.0326 11.9971 70.2816 11.9766 70.4984 11.9355V13.8604C70.0003 14.0127 69.4876 14.0889 68.9603 14.0889C67.179 14.0889 66.2708 13.1895 66.2357 11.3906V6.2666H64.847V4.40332H66.2357V2.06543H68.7757ZM76.1937 14.0889C74.7992 14.0889 73.6624 13.6611 72.7835 12.8057C71.9105 11.9502 71.474 10.8105 71.474 9.38672V9.14062C71.474 8.18555 71.6585 7.33301 72.0277 6.58301C72.3968 5.82715 72.9183 5.24707 73.5921 4.84277C74.2718 4.43262 75.0453 4.22754 75.9124 4.22754C77.2132 4.22754 78.2357 4.6377 78.9798 5.45801C79.7298 6.27832 80.1048 7.44141 80.1048 8.94727V9.98438H74.0492C74.1312 10.6055 74.3773 11.1035 74.7874 11.4785C75.2035 11.8535 75.7279 12.041 76.3607 12.041C77.3392 12.041 78.1039 11.6865 78.6546 10.9775L79.9027 12.375C79.5218 12.9141 79.0062 13.3359 78.3558 13.6406C77.7054 13.9395 76.9847 14.0889 76.1937 14.0889ZM75.9037 6.28418C75.3997 6.28418 74.9896 6.4541 74.6732 6.79395C74.3626 7.13379 74.1634 7.62012 74.0755 8.25293H77.6087V8.05078C77.597 7.48828 77.4447 7.05469 77.1517 6.75C76.8587 6.43945 76.4427 6.28418 75.9037 6.28418ZM86.8988 6.78516C86.5531 6.73828 86.2484 6.71484 85.9847 6.71484C85.0238 6.71484 84.3939 7.04004 84.0951 7.69043V13.9131H81.555V4.40332H83.9544L84.0247 5.53711C84.5345 4.66406 85.2406 4.22754 86.1429 4.22754C86.4242 4.22754 86.6878 4.26562 86.9339 4.3418L86.8988 6.78516Z" fill="#403F3F"/>
</svg>
