<svg width="24" height="24" viewBox="0 0 24 24" fill="none" xmlns="http://www.w3.org/2000/svg">
<path d="M20.6989 12.2105L16.822 8.33368C16.7265 8.23822 16.6132 8.16249 16.4885 8.11082C16.3637 8.05916 16.2301 8.03257 16.0951 8.03257C15.96 8.03257 15.8264 8.05916 15.7016 8.11082C15.5769 8.16249 15.4636 8.23822 15.3681 8.33368C15.1753 8.52647 15.067 8.78795 15.067 9.0606C15.067 9.33324 15.1753 9.59472 15.3681 9.78751L17.4901 11.9095H6.26508C5.99243 11.9095 5.73095 12.0178 5.53816 12.2106C5.34537 12.4034 5.23706 12.6648 5.23706 12.9375C5.23706 13.2101 5.34537 13.4716 5.53816 13.6644C5.73095 13.8572 5.99243 13.9655 6.26508 13.9655H17.4901L15.3681 16.0875C15.1753 16.2803 15.067 16.5417 15.067 16.8144C15.067 17.087 15.1753 17.3485 15.3681 17.5413C15.5609 17.7341 15.8224 17.8424 16.0951 17.8424C16.3677 17.8424 16.6292 17.7341 16.822 17.5413L20.6989 13.6644C20.8917 13.4716 21 13.2101 21 12.9375C21 12.6648 20.8917 12.4033 20.6989 12.2105Z" fill="black"/>
<path d="M13.1185 18.7629C12.8459 18.7629 12.5844 18.8712 12.3916 19.064C12.1988 19.2568 12.0905 19.5183 12.0905 19.791V20.819H3.18103V5.05605H12.0905V6.08406C12.0905 6.35671 12.1988 6.61819 12.3916 6.81098C12.5844 7.00377 12.8459 7.11208 13.1185 7.11208C13.3912 7.11208 13.6527 7.00377 13.8454 6.81098C14.0382 6.61819 14.1465 6.35671 14.1465 6.08406V4.71338C14.1465 4.48837 14.1022 4.26558 14.0161 4.0577C13.93 3.84983 13.8038 3.66095 13.6447 3.50185C13.4856 3.34275 13.2967 3.21654 13.0889 3.13044C12.881 3.04433 12.6582 3.00002 12.4332 3.00002H2.83836C2.38395 3.00002 1.94815 3.18053 1.62683 3.50185C1.30551 3.82316 1.125 4.25896 1.125 4.71338V21.1616C1.125 21.6161 1.30551 22.0519 1.62683 22.3732C1.94815 22.6945 2.38395 22.875 2.83836 22.875H12.4332C12.6582 22.875 12.881 22.8307 13.0889 22.7446C13.2967 22.6585 13.4856 22.5323 13.6447 22.3732C13.8038 22.2141 13.93 22.0252 14.0161 21.8173C14.1022 21.6094 14.1465 21.3866 14.1465 21.1616V19.791C14.1465 19.5183 14.0382 19.2568 13.8454 19.064C13.6527 18.8712 13.3912 18.7629 13.1185 18.7629Z" fill="black"/>
</svg>
